<?xml version="1.0" encoding="UTF-8"?>
<svg version="1.1" xmlns="http://www.w3.org/2000/svg" width="1019" height="718">
<path d="M0 0 C33.31096575 -0.89923969 63.36907133 11.36546298 87.65234375 33.8671875 C103.634924 49.37425296 114.19217557 67.75914602 120.015625 89.22265625 C120.22356689 89.98352539 120.43150879 90.74439453 120.64575195 91.52832031 C122.30473485 98.1642519 123.3278186 104.27009035 120.43359375 110.64453125 C119.69753906 111.7221875 118.96148438 112.79984375 118.203125 113.91015625 C117.80367676 114.49869385 117.40422852 115.08723145 116.99267578 115.69360352 C112.45664272 122.22908367 107.32869415 128.25038856 102.015625 134.16015625 C101.44585938 134.81371094 100.87609375 135.46726562 100.2890625 136.140625 C82.32454916 155.53308684 54.86955451 167.00453744 29.015625 170.16015625 C26.34043575 170.24072721 23.69311495 170.21335141 21.015625 170.16015625 C23.81752106 167.97519144 26.67678505 166.16115469 29.765625 164.41015625 C42.50525739 156.75889392 49.86977679 146.47001944 54.015625 132.16015625 C57.39686825 118.31748255 54.47365656 105.06055694 47.703125 92.78515625 C40.14628298 80.61735978 28.60036148 73.1306015 14.73046875 69.57421875 C11.1166211 69.02304199 7.53814032 68.89668199 3.890625 68.84765625 C3.19453125 68.81865234 2.4984375 68.78964844 1.78125 68.75976562 C-9.71700096 68.6238772 -18.64463943 74.48096182 -27.80291748 80.80685425 C-30.403335 82.60284164 -33.02162066 84.3720746 -35.63842773 86.14405823 C-37.01421056 87.07628852 -38.38903944 88.00992811 -39.76293945 88.94493103 C-47.0714509 93.91643718 -54.46152831 98.76055461 -61.859375 103.59765625 C-63.19891694 104.4750186 -64.53835336 105.35254209 -65.87768555 106.23022461 C-68.56883388 107.99368281 -71.26034149 109.75659029 -73.95214844 111.51904297 C-79.96657655 115.45765476 -85.97630549 119.40342692 -91.98638916 123.34866333 C-95.31885845 125.53612121 -98.65163212 127.72311524 -101.984375 129.91015625 C-103.31770979 130.78515403 -104.65104312 131.66015403 -105.984375 132.53515625 C-177.98437502 179.78515627 -177.98437502 179.78515627 -179.98419189 181.09753418 C-181.31813791 181.97293753 -182.6520816 182.84834443 -183.98602295 183.72375488 C-187.30996312 185.9051128 -190.63394324 188.08640979 -193.95800781 190.26757812 C-201.47574457 195.20063858 -208.99287241 200.13462221 -216.50769043 205.0721283 C-219.93398316 207.32292805 -223.36173215 209.57144012 -226.79296875 211.81469727 C-232.51422964 215.55668423 -238.22476293 219.30729594 -243.875 223.15625 C-253.55576174 229.71343169 -262.69893912 234.96900751 -273.984375 238.16015625 C-274.65597656 238.36463379 -275.32757813 238.56911133 -276.01953125 238.77978516 C-295.64009465 244.58802203 -320.30428169 244.75724701 -339.984375 239.16015625 C-341.2115625 238.81984375 -342.43875 238.47953125 -343.703125 238.12890625 C-374.46304005 228.72298181 -400.45594674 207.42177318 -416.02490234 179.27929688 C-423.1031329 165.770517 -429.28510921 149.55227996 -428.984375 134.16015625 C-425.6745542 135.26342985 -425.18919681 135.89496795 -423.109375 138.53515625 C-407.37208746 156.93922264 -384.30714452 168.70630063 -360.984375 174.16015625 C-360.02144531 174.38574219 -359.05851562 174.61132812 -358.06640625 174.84375 C-329.10358694 180.39144987 -300.50817661 173.87881217 -274.92236328 160.18798828 C-272.98563251 159.16082318 -271.03352021 158.17082534 -269.07421875 157.1875 C-261.93433262 153.56203753 -255.55631667 149.59093404 -249.2355957 144.62597656 C-245.93967399 142.08541377 -242.51660411 139.77332903 -239.04296875 137.484375 C-238.06595253 136.83690056 -238.06595253 136.83690056 -237.06919861 136.17634583 C-235.04276411 134.83480504 -233.01397827 133.4968973 -230.984375 132.16015625 C-230.36556458 131.75224854 -229.74675415 131.34434082 -229.10919189 130.92407227 C-224.75958196 128.05839894 -220.40372373 125.20230705 -216.046875 122.34765625 C-214.6612575 121.43918567 -213.27567902 120.53065558 -211.89013672 119.62207031 C-209.74218168 118.21355858 -207.59418854 116.80510521 -205.44604492 115.3968811 C-200.5318018 112.17532635 -195.61895223 108.95165658 -190.70703125 105.7265625 C-189.35221518 104.83707432 -187.99739748 103.94758863 -186.64257812 103.05810547 C-184.62294472 101.73214833 -182.60331881 100.4061798 -180.58374023 99.08013916 C-173.84652206 94.6568797 -167.10727951 90.23689885 -160.35546875 85.8359375 C-159.30625244 85.15176758 -158.25703613 84.46759766 -157.17602539 83.76269531 C-155.10670777 82.41361065 -153.03689153 81.06529045 -150.96655273 79.71777344 C-144.67876968 75.61341781 -138.43400162 71.45160191 -132.2109375 67.25 C-130.69660961 66.23027389 -129.18220544 65.21066106 -127.66772461 64.19116211 C-124.71710328 62.20473728 -121.77389965 60.20790489 -118.83422852 58.20532227 C-117.48220867 57.29402536 -116.12992637 56.38311766 -114.77734375 55.47265625 C-114.1639212 55.0506041 -113.55049866 54.62855194 -112.91848755 54.19371033 C-109.670537 52.02145186 -106.94122273 50.35239872 -102.984375 50.16015625 C-100.171875 52.09765625 -100.171875 52.09765625 -97.984375 54.16015625 C-95.28975358 51.85747976 -92.62897993 49.52009884 -89.984375 47.16015625 C-89.283125 46.53882813 -88.581875 45.9175 -87.859375 45.27734375 C-87.22 44.68179688 -86.580625 44.08625 -85.921875 43.47265625 C-85.33277344 42.93253906 -84.74367188 42.39242187 -84.13671875 41.8359375 C-82.72572072 40.18949143 -82.72572072 40.18949143 -83.30078125 37.953125 C-83.52636719 37.36144531 -83.75195312 36.76976562 -83.984375 36.16015625 C-77.23606904 31.04173775 -70.3199792 26.37861247 -63.10375977 21.95483398 C-59.81080229 19.93499306 -56.55499587 17.89359159 -53.375 15.69921875 C-37.54351721 4.84150094 -18.97767278 1.01843532 0 0 Z " fill="#FF7900" transform="translate(646.984375,174.83984375)"/>
<path d="M0 0 C0.76054687 0.61101563 1.52109375 1.22203125 2.3046875 1.8515625 C3.00335938 2.40070312 3.70203125 2.94984375 4.421875 3.515625 C12.1284907 10.32263576 17.30600497 20.85814984 19.3046875 30.8515625 C19.3046875 34.4815625 19.3046875 38.1115625 19.3046875 41.8515625 C7.0946875 41.8515625 -5.1153125 41.8515625 -17.6953125 41.8515625 C-18.6853125 36.4065625 -18.6853125 36.4065625 -19.6953125 30.8515625 C-22.79803422 24.64611906 -27.43417645 20.98621567 -33.90625 18.734375 C-43.08732202 16.59527987 -54.04632253 16.38638811 -62.671875 20.5078125 C-67.02602617 23.39937235 -70.0436502 26.8965756 -71.6953125 31.8515625 C-72.21761096 36.34675413 -72.13347319 39.8799888 -70.2578125 44.0390625 C-61.87435608 53.2404171 -49.71662038 56.86213394 -38.2109375 60.69140625 C-18.02311862 67.42687508 2.17115498 75.24494451 14.3046875 93.8515625 C20.20119856 105.74713264 21.15169897 119.36320074 18.62109375 132.36328125 C17.705817 135.02555926 16.6615457 137.38723748 15.3046875 139.8515625 C14.88058594 140.63402344 14.45648438 141.41648437 14.01953125 142.22265625 C6.37001518 154.85820787 -5.75785493 161.60265532 -19.7578125 165.1640625 C-26.04135445 166.65735739 -32.23984478 167.61847654 -38.6953125 167.8515625 C-39.46488281 167.89152344 -40.23445313 167.93148437 -41.02734375 167.97265625 C-61.27302132 168.54342991 -82.83110095 163.20373186 -98.5703125 150.0390625 C-108.7207914 140.37282663 -114.13781877 128.7050594 -115.6953125 114.8515625 C-115.6953125 112.8715625 -115.6953125 110.8915625 -115.6953125 108.8515625 C-103.4853125 108.8515625 -91.2753125 108.8515625 -78.6953125 108.8515625 C-77.3753125 113.8015625 -76.0553125 118.7515625 -74.6953125 123.8515625 C-69.61362439 131.47409466 -64.11864238 134.24303115 -55.37109375 136.43359375 C-44.69557769 138.10115611 -33.12450022 137.81850811 -23.7578125 132.0390625 C-19.72631821 127.76323522 -18.50148522 124.15696661 -18.3203125 118.3515625 C-18.51018279 112.95486468 -19.23091299 109.30302553 -23.18359375 105.37109375 C-31.60510447 98.35617369 -42.61179814 95.2100262 -52.79467773 91.62988281 C-75.31201459 83.70173947 -96.57485516 75.20181134 -107.53125 52.5859375 C-111.46167135 43.35340413 -111.29462204 30.13191356 -108.0703125 20.7265625 C-101.29377509 5.4498388 -89.84866512 -3.01924562 -74.6953125 -9.1484375 C-50.59606206 -17.0543002 -20.70288482 -15.54369946 0 0 Z " fill="#022222" transform="translate(171.6953125,523.1484375)"/>
<path d="M0 0 C0 0.66 0 1.32 0 2 C-0.88300781 2.47308594 -1.76601563 2.94617188 -2.67578125 3.43359375 C-30.17521718 18.45675484 -50.75239352 43.26854243 -60.0078125 73.30078125 C-63.65116687 86.8844686 -65.17855179 100.09166026 -65.0625 114.125 C-65.05798828 115.176875 -65.05347656 116.22875 -65.04882812 117.3125 C-65.03718028 119.87502522 -65.01925068 122.43752062 -65 125 C-69.95 125 -74.9 125 -80 125 C-79.505 136.88 -79.505 136.88 -79 149 C-74.05 149 -69.1 149 -64 149 C-63.319375 151.206875 -62.63875 153.41375 -61.9375 155.6875 C-59.78242059 162.41582391 -56.92108249 168.27814431 -53.35546875 174.390625 C-52 177 -52 177 -52 180 C-54.00611126 182.0982958 -56.16006994 183.96006098 -58.34765625 185.8671875 C-60.32391314 187.91711722 -60.32391314 187.91711722 -59.74609375 190.7578125 C-59.49988281 191.49773437 -59.25367188 192.23765625 -59 193 C-58.01 193.33 -57.02 193.66 -56 194 C-54.31066078 195.6436814 -52.64740076 197.3142876 -51 199 C-49.03326663 200.71161465 -47.02254103 202.35374567 -45 204 C-43.8944811 203.06409496 -42.79064547 202.12620142 -41.6875 201.1875 C-41.07261719 200.66542969 -40.45773437 200.14335937 -39.82421875 199.60546875 C-38.14575321 198.12827531 -36.56117966 196.59960869 -35 195 C-31.35827733 196.38293266 -27.99446422 198.03763774 -24.5625 199.875 C-17.90445929 203.25791483 -11.21678669 205.18512761 -4 207 C-3.69677734 210.25512695 -3.69677734 210.25512695 -4 214 C-6.00244141 216.12963867 -6.00244141 216.12963867 -8.8515625 217.91796875 C-9.91681152 218.60600586 -10.98206055 219.29404297 -12.07958984 220.00292969 C-13.26100468 220.73175 -14.44281873 221.45992354 -15.625 222.1875 C-16.83308218 222.95363294 -18.03960224 223.72223411 -19.24462891 224.49316406 C-21.14904711 225.71109833 -23.05453041 226.92690594 -24.96603394 228.13369751 C-29.82331641 231.20798269 -34.57215296 234.41776788 -39.296875 237.69140625 C-40.6590853 238.62838503 -42.02155017 239.56499382 -43.38427734 240.5012207 C-45.37557837 241.86929819 -47.36298974 243.24155954 -49.33966064 244.63070679 C-51.18142668 245.92202668 -53.03754565 247.18958704 -54.8984375 248.453125 C-55.95724121 249.18692383 -57.01604492 249.92072266 -58.10693359 250.67675781 C-61 252 -61 252 -63.70166016 251.33056641 C-92.66406643 234.5635052 -114.54834662 205.56592181 -123.45898438 173.32446289 C-124.00105387 171.22200068 -124.50887987 169.11491373 -125 167 C-125.16226074 166.31711914 -125.32452148 165.63423828 -125.49169922 164.93066406 C-133.30496798 130.59743562 -126.59510101 93.49851887 -108.125 63.6875 C-97.22126942 46.6288008 -83.14143769 31.82762123 -66 21 C-65.38431152 20.60973633 -64.76862305 20.21947266 -64.13427734 19.81738281 C-45.35662385 8.13372358 -22.33454791 0 0 0 Z " fill="#FF7900" transform="translate(489,25)"/>
<path d="M0 0 C0.33 0 0.66 0 1 0 C0.43992246 25.50898595 -10.80561017 48.81681507 -27 68 C-27.65355469 68.80050781 -28.30710937 69.60101563 -28.98046875 70.42578125 C-48.5653084 93.46460764 -77.16979613 106.6504384 -106.984375 109.53515625 C-143.84116141 112.3877041 -172.33051576 98.51575504 -202.125 78.59375 C-203.71205904 77.53415305 -205.29913672 76.47458402 -206.88623047 75.41503906 C-207.71701111 74.86013794 -208.54779175 74.30523682 -209.40374756 73.73352051 C-213.91586137 70.72077733 -218.43076999 67.71222702 -222.9453125 64.703125 C-224.80079379 63.46616464 -226.6562625 62.22918542 -228.51171875 60.9921875 C-229.43259277 60.37827148 -230.3534668 59.76435547 -231.30224609 59.13183594 C-238.86816406 54.08789062 -246.43408203 49.04394531 -254 44 C-252.87718882 40.63156646 -252.47877239 40.3886868 -249.58984375 38.64453125 C-248.85926758 38.19513184 -248.12869141 37.74573242 -247.37597656 37.28271484 C-246.5712793 36.79754395 -245.76658203 36.31237305 -244.9375 35.8125 C-237.10435074 30.98200769 -229.39642926 25.99598645 -221.75 20.875 C-220.22572388 19.85865479 -220.22572388 19.85865479 -218.6706543 18.82177734 C-214.18210367 15.82407843 -209.70843221 12.81038605 -205.28125 9.72265625 C-204.5893457 9.24521973 -203.89744141 8.7677832 -203.18457031 8.27587891 C-201.9368021 7.41264501 -200.69594101 6.5392985 -199.46386719 5.65380859 C-195.53027962 2.9449171 -195.53027962 2.9449171 -193.02807617 3.20483398 C-190.60824087 4.15360052 -189.47157265 5.2828549 -187.72265625 7.1953125 C-184.22290343 10.84682368 -180.50519576 13.88143803 -176.4375 16.875 C-175.74350098 17.38893311 -175.04950195 17.90286621 -174.33447266 18.43237305 C-145.92546637 39.26499704 -114.68063873 51.16523994 -79.08007812 46.17553711 C-48.65447265 41.3044265 -23.87803985 26.73802281 -3.48950195 3.80908203 C-2.34388461 2.52353079 -1.17422829 1.25947172 0 0 Z " fill="#FF7900" transform="translate(769,305)"/>
<path d="M0 0 C0.08451416 0.55647217 0.16902832 1.11294434 0.25610352 1.6862793 C3.45081646 22.1495978 8.97889465 40.83169558 19 59 C19.5878125 60.08925781 20.175625 61.17851562 20.78125 62.30078125 C24.18532175 68.38942777 27.98304734 73.70275341 32.59375 78.94140625 C33.0578125 79.62074219 33.521875 80.30007812 34 81 C33.67 81.99 33.34 82.98 33 84 C32.46632813 83.56429687 31.93265625 83.12859375 31.3828125 82.6796875 C16.19955519 70.5435891 1.53274903 64.96096303 -18 67 C-30.19459235 69.40114761 -42.39577313 76.55061868 -49.91015625 86.5390625 C-59.17165136 100.50012732 -62.26311426 115.14387502 -59.3515625 131.68359375 C-56.62415634 141.39269347 -51.64199782 150.3132519 -44 157 C-43.25169922 157.71736328 -43.25169922 157.71736328 -42.48828125 158.44921875 C-37.83114476 162.75896977 -32.7269688 165.35235613 -27 168 C-25.66440682 168.66212769 -24.33026123 169.3272242 -23 170 C-23 170.33 -23 170.66 -23 171 C-54.86030449 170.50429512 -81.61682074 158.02222202 -105 137 C-105.98033203 136.14535156 -105.98033203 136.14535156 -106.98046875 135.2734375 C-114.13586936 128.64491912 -125.98816035 115.58879739 -127.3125 105.65625 C-123.41417269 78.75779157 -111.59949741 55.72273526 -93 36 C-92.38769531 35.32324219 -91.77539062 34.64648438 -91.14453125 33.94921875 C-68.21763015 9.55577813 -32.79508548 -1.48818035 0 0 Z " fill="#FF7900" transform="translate(345,175)"/>
<path d="M0 0 C0.82790039 0.22333008 1.65580078 0.44666016 2.50878906 0.67675781 C37.68142728 10.53260573 65.4659951 33.5794326 84.3125 64.5625 C95.34868897 84.66332056 100.54121122 106.14054825 101.125 128.9375 C99.70574219 129.26621094 99.70574219 129.26621094 98.2578125 129.6015625 C83.83482027 133.02496893 69.8573929 137.27382168 56.53125 143.8359375 C54.125 144.9375 54.125 144.9375 52.125 144.9375 C52.125 137.3475 52.125 129.7575 52.125 121.9375 C45.195 121.4425 45.195 121.4425 38.125 120.9375 C37.84527344 119.94492188 37.56554687 118.95234375 37.27734375 117.9296875 C34.76801235 109.33538709 31.73572818 101.65973061 27.3828125 93.828125 C26.125 90.9375 26.125 90.9375 26.203125 88.765625 C27.72489297 85.74788173 30.2084956 83.90837339 32.7265625 81.71875 C34.3562509 80.0504083 34.3562509 80.0504083 33.99609375 77.9296875 C31.07704706 71.25384081 24.89217995 67.01429962 19.125 62.9375 C16.155 65.9075 13.185 68.8775 10.125 71.9375 C6.10532804 70.32963122 2.49831771 68.58025088 -1.3125 66.5625 C-8.31810098 62.94284526 -15.20818527 60.89332008 -22.875 58.9375 C-22.875 53.9875 -22.875 49.0375 -22.875 43.9375 C-30.465 43.9375 -38.055 43.9375 -45.875 43.9375 C-45.875 48.8875 -45.875 53.8375 -45.875 58.9375 C-46.97457031 59.22882813 -48.07414062 59.52015625 -49.20703125 59.8203125 C-57.18656417 62.00682022 -64.43719403 64.29589417 -71.578125 68.60546875 C-73.875 69.9375 -73.875 69.9375 -78.875 71.9375 C-81.515 69.2975 -84.155 66.6575 -86.875 63.9375 C-80.24576527 49.88563809 -72.57686612 38.30578269 -61.875 26.9375 C-61.33617187 26.33421875 -60.79734375 25.7309375 -60.2421875 25.109375 C-45.70216033 9.47336588 -21.43389167 -5.80703787 0 0 Z " fill="#FF7900" transform="translate(530.875,29.0625)"/>
<path d="M0 0 C13.09978437 11.21569055 19.90112711 25.80929927 22.12890625 42.77734375 C23.83587828 66.30903768 21.4321389 87.83817704 5.54296875 106.3046875 C-7.29688019 119.45618326 -23.90096982 123.43969171 -41.62744141 123.78417969 C-58.46191402 123.73288858 -72.81677477 117.39359231 -85.05859375 106.08984375 C-99.36599733 91.08874788 -102.52312993 70.72033469 -102.12109375 50.82421875 C-101.43520106 32.75780539 -95.52149518 14.82869579 -82.30859375 2.02734375 C-59.74905932 -17.04571718 -23.41130115 -18.12385082 0 0 Z M-58.265625 24.55078125 C-67.65704485 37.57537813 -67.26867028 55.27694705 -65.41015625 70.5703125 C-63.68975483 78.39307895 -60.09802862 84.37113472 -54.62109375 90.15234375 C-48.20211946 93.94537401 -41.66115022 95.50150568 -34.25390625 94.41015625 C-27.31304149 92.56684463 -21.60553058 87.84304144 -17.87109375 81.77734375 C-11.11047927 68.73901582 -11.70795436 49.21530269 -15.30859375 35.27734375 C-17.97728434 28.35572222 -22.60121961 22.49679757 -28.8828125 18.49609375 C-39.14908809 13.99809065 -50.74357001 16.46069923 -58.265625 24.55078125 Z " fill="#022222" transform="translate(308.87109375,567.22265625)"/>
<path d="M0 0 C13.86741062 11.70827928 20.10101156 28.6350978 21.75 46.3125 C23.03637671 67.4205458 19.62585816 87.65075526 5.75 104.3125 C5.20601562 104.96992187 4.66203125 105.62734375 4.1015625 106.3046875 C-6.68372171 118.14219456 -22.40924852 122.54936614 -37.91918945 123.29125977 C-55.47916476 123.75163365 -72.15570122 118.54145142 -85.23828125 106.546875 C-101.30696433 88.69971632 -103.19360547 67.66979141 -102.44091797 44.59570312 C-101.41292007 26.91729421 -93.36581016 11.32335886 -80.28515625 -0.45703125 C-57.6232671 -18.76264723 -22.6533227 -16.87759004 0 0 Z M-59.25 24.3125 C-68.19782286 38.9115794 -69.03267319 56.88665284 -65.25 73.3125 C-62.8903421 81.88985647 -58.81394914 87.26986724 -51.4375 92.1875 C-43.37243581 95.03399324 -36.06332537 94.89031903 -28.25 91.3125 C-21.23174924 87.16162796 -18.09782941 80.64425779 -15.5 73.1484375 C-12.16232978 60.02953929 -12.43267476 41.81925689 -18.57421875 29.69921875 C-22.07129741 24.09104274 -25.96906749 19.87839961 -32 17 C-41.90072052 14.90561681 -52.38392887 16.12378627 -59.25 24.3125 Z " fill="#022222" transform="translate(616.25,567.6875)"/>
<path d="M0 0 C3.58015997 2.78006765 6.81958549 5.77398815 10 9 C10.57492187 9.56460938 11.14984375 10.12921875 11.7421875 10.7109375 C21.69231648 21.27972735 26.45431841 37.71737755 27 52 C27.05994141 53.56621094 27.05994141 53.56621094 27.12109375 55.1640625 C27.51103349 75.85380635 22.97450788 95.39389255 8.40625 110.71484375 C-3.82787017 122.33328579 -18.85830233 126.7260947 -35.5 127.25 C-53.0100713 126.6977343 -69.35348102 121.23255343 -81.75 108.4375 C-97.35688286 89.92701103 -98.57310688 67.18697588 -97 44 C-95.19044035 27.78824721 -87.10771463 13.96270008 -75 3.2265625 C-54.34735791 -13.17896368 -22.13245653 -13.95767779 0 0 Z M-54.4375 28.875 C-63.49089992 42.59536383 -63.48783061 59.55709885 -60.48071289 75.24438477 C-58.82054324 82.78351892 -55.74666183 89.15019029 -49.625 94 C-42.75240236 98.24085894 -35.80785796 98.66866502 -28 97 C-20.90209943 94.87702433 -16.76905328 90.22843553 -13 84 C-6.80250787 70.40183961 -6.79739089 50.24526266 -12 36.32421875 C-15.27060189 29.06219153 -19.43114587 25.0589543 -26.25 21.125 C-36.90608515 17.92817446 -47.32464175 19.87005138 -54.4375 28.875 Z " fill="#022222" transform="translate(905,564)"/>
<path d="M0 0 C7.54081639 -0.16605425 13.49869095 0.82660474 21.265625 2.12109375 C21.265625 11.69109375 21.265625 21.26109375 21.265625 31.12109375 C17.305625 30.79109375 13.345625 30.46109375 9.265625 30.12109375 C4.01349904 30.91888504 -0.55282979 31.67746828 -4.734375 35.12109375 C-7.71096362 39.96262119 -8.24597703 43.98006996 -8.421875 49.49609375 C-8.525 52.01234375 -8.628125 54.52859375 -8.734375 57.12109375 C-0.154375 57.12109375 8.425625 57.12109375 17.265625 57.12109375 C17.265625 66.03109375 17.265625 74.94109375 17.265625 84.12109375 C8.685625 84.12109375 0.105625 84.12109375 -8.734375 84.12109375 C-8.734375 118.44109375 -8.734375 152.76109375 -8.734375 188.12109375 C-20.614375 188.12109375 -32.494375 188.12109375 -44.734375 188.12109375 C-44.734375 153.80109375 -44.734375 119.48109375 -44.734375 84.12109375 C-51.004375 84.12109375 -57.274375 84.12109375 -63.734375 84.12109375 C-63.734375 75.21109375 -63.734375 66.30109375 -63.734375 57.12109375 C-57.464375 57.12109375 -51.194375 57.12109375 -44.734375 57.12109375 C-44.79625 54.23359375 -44.858125 51.34609375 -44.921875 48.37109375 C-45.01692376 34.07722279 -41.99800698 21.6179901 -31.734375 11.12109375 C-22.56396484 3.57677693 -11.67410227 0.51699596 0 0 Z " fill="#022222" transform="translate(405.734375,499.87890625)"/>
<path d="M0 0 C11.55 0 23.1 0 35 0 C35 10.56 35 21.12 35 32 C42.26 32 49.52 32 57 32 C57 40.91 57 49.82 57 59 C49.74 59 42.48 59 35 59 C35.08556248 67.7798927 35.1793441 76.55959257 35.28752708 85.33923626 C35.33743569 89.41614579 35.38376611 93.4930301 35.421875 97.57006836 C35.45879662 101.50592374 35.50517505 105.44156525 35.55806351 109.37723732 C35.57657097 110.8774623 35.59169237 112.37773307 35.60334396 113.87802696 C35.62026923 115.98230177 35.6493183 118.08609067 35.68115234 120.19018555 C35.69447601 121.38709518 35.70779968 122.58400482 35.7215271 123.81718445 C36.09633485 128.10106246 36.79615134 130.9703632 40.10546875 133.80078125 C43.88022816 135.36468292 47.30797444 135.3259815 51.3125 135.1875 C53.849375 135.125625 56.38625 135.06375 59 135 C59 144.24 59 153.48 59 163 C44.77759656 166.1605341 28.0636867 168.73402111 14.734375 161.10546875 C7.06161935 156.21495107 3.34999805 149.99436205 0.43214417 141.30987549 C-0.19680804 137.94803148 -0.13022035 134.60904195 -0.11352539 131.20214844 C-0.11367142 130.42127869 -0.11381744 129.64040894 -0.1139679 128.83587646 C-0.11327242 126.26034751 -0.10549712 123.68489129 -0.09765625 121.109375 C-0.09579077 119.32147257 -0.09436748 117.53356963 -0.09336853 115.7456665 C-0.08955357 111.04389022 -0.07973198 106.34214492 -0.06866455 101.64038086 C-0.05842849 96.84098734 -0.0538662 92.0415888 -0.04882812 87.2421875 C-0.03810881 77.82810921 -0.02052026 68.41406203 0 59 C-6.27 59 -12.54 59 -19 59 C-19 50.09 -19 41.18 -19 32 C-12.73 32 -6.46 32 0 32 C0 21.44 0 10.88 0 0 Z " fill="#022222" transform="translate(447,525)"/>
<path d="M0 0 C1.80791016 -0.00386719 1.80791016 -0.00386719 3.65234375 -0.0078125 C7.0625 0.125 7.0625 0.125 12.0625 1.125 C11.7325 12.675 11.4025 24.225 11.0625 36.125 C1.625 35.9375 1.625 35.9375 -1.29077148 35.85473633 C-8.80420836 35.78344262 -16.25410819 36.84565818 -21.9375 42.1875 C-22.494375 42.69410156 -23.05125 43.20070313 -23.625 43.72265625 C-26.75043526 47.06203499 -26.11173393 50.9417038 -26.14282227 55.24658203 C-26.15272186 56.08568115 -26.16262146 56.92478027 -26.17282104 57.78930664 C-26.20447792 60.57044629 -26.22921 63.35160304 -26.25390625 66.1328125 C-26.27447216 68.05809988 -26.29546854 69.98338271 -26.31687927 71.90866089 C-26.37213741 76.98195718 -26.42153017 82.05529447 -26.46972656 87.12866211 C-26.51991429 92.30325988 -26.57561458 97.47779794 -26.63085938 102.65234375 C-26.73848672 112.80984677 -26.83941227 122.96740037 -26.9375 133.125 C-38.8175 133.125 -50.6975 133.125 -62.9375 133.125 C-62.9375 89.895 -62.9375 46.665 -62.9375 2.125 C-51.7175 2.125 -40.4975 2.125 -28.9375 2.125 C-28.4425 7.075 -28.4425 7.075 -27.9375 12.125 C-27.4425 13.115 -27.4425 13.115 -26.9375 14.125 C-26.53660156 13.60550781 -26.13570312 13.08601562 -25.72265625 12.55078125 C-18.59312842 3.80458045 -11.23612413 -0.02398319 0 0 Z " fill="#022222" transform="translate(720.9375,554.875)"/>
<path d="M0 0 C11.55 0 23.1 0 35 0 C35 43.23 35 86.46 35 131 C23.45 131 11.9 131 0 131 C0 87.77 0 44.54 0 0 Z " fill="#022222" transform="translate(750,557)"/>
<path d="M0 0 C6.68617243 6.34923146 11.26893068 14.80918987 11.98828125 24.06640625 C12.25381292 36.57434551 9.49925036 45.85872621 0.75 55 C-7.51182674 62.56644252 -16.13142034 65 -27.25 65 C-38.14405353 63.99536106 -47.04419701 59.24280047 -54.25 51 C-60.53982054 40.73627611 -62.24889655 31.90449648 -61.25 20 C-58.8842769 10.24860477 -53.13216158 1.92451911 -44.76171875 -3.66015625 C-29.98887162 -11.54053971 -13.10068533 -10.7773149 0 0 Z " fill="#FF7900" transform="translate(521.25,132)"/>
<path d="M0 0 C4.27295432 2.54213738 6.85816689 5.57450066 8.4375 10.3125 C8.91504426 16.1761172 9.29965611 21.49239266 6.75 26.875 C1.37222473 32.54346583 -3.05400837 34.89504707 -10.9375 35.625 C-17.48390265 35.06065494 -22.6371185 33.84396431 -27.0625 28.75 C-31.51426115 22.99980851 -31.1657569 17.43263074 -30.5625 10.3125 C-28.93807699 4.9101332 -25.41508172 1.99690691 -20.5625 -0.6875 C-14.17307915 -2.81730695 -6.16240967 -2.88354264 0 0 Z " fill="#022222" transform="translate(778.5625,507.6875)"/>
</svg>
